# Blender v2.78 (sub 0) OBJ File: 'cube.blend'
# www.blender.org
mtllib cube.mtl
o Cube
v -1.000000 0.666667 0.666666
v -1.000000 0.333333 0.666666
v -1.000000 -0.000000 0.666666
v -1.000000 -0.333333 0.666666
v -1.000000 -0.666667 0.666666
v -1.000000 0.666667 0.333333
v -1.000000 0.333333 0.333333
v -1.000000 -0.000000 0.333333
v -1.000000 -0.333333 0.333333
v -1.000000 -0.666667 0.333333
v -1.000000 0.666667 -0.000000
v -1.000000 0.333333 -0.000000
v -1.000000 -0.000000 -0.000000
v -1.000000 -0.333333 -0.000000
v -1.000000 -0.666667 -0.000000
v -1.000000 0.666667 -0.333333
v -1.000000 0.333333 -0.333334
v -1.000000 -0.000000 -0.333334
v -1.000000 -0.333333 -0.333334
v -1.000000 -0.666667 -0.333334
v -1.000000 0.666667 -0.666667
v -1.000000 0.333333 -0.666667
v -1.000000 -0.000000 -0.666667
v -1.000000 -0.333333 -0.666667
v -1.000000 -0.666667 -0.666667
v 1.000000 0.666667 -0.666666
v 1.000000 0.333333 -0.666666
v 1.000000 -0.000000 -0.666666
v 1.000000 -0.333333 -0.666666
v 1.000000 -0.666667 -0.666667
v 1.000000 0.666667 -0.333333
v 1.000000 0.333333 -0.333333
v 1.000000 -0.000000 -0.333333
v 1.000000 -0.333333 -0.333333
v 1.000000 -0.666667 -0.333333
v 1.000000 0.666667 0.000000
v 1.000000 0.333333 0.000000
v 1.000000 -0.000000 0.000000
v 1.000000 -0.333333 0.000000
v 1.000000 -0.666667 0.000000
v 1.000000 0.666667 0.333334
v 1.000000 0.333333 0.333334
v 1.000000 -0.000000 0.333334
v 1.000000 -0.333333 0.333334
v 1.000000 -0.666667 0.333333
v 1.000000 0.666667 0.666667
v 1.000000 0.333333 0.666667
v 1.000000 -0.000000 0.666667
v 1.000000 -0.333333 0.666667
v 1.000000 -0.666667 0.666667
v -0.666667 1.000000 -0.666667
v -0.333333 1.000000 -0.666667
v 0.000000 1.000000 -0.666666
v 0.333333 1.000000 -0.666666
v 0.666667 1.000000 -0.666666
v -0.666667 1.000000 -0.333333
v -0.333333 1.000000 -0.333333
v 0.000000 1.000000 -0.333333
v 0.333333 1.000000 -0.333333
v 0.666667 1.000000 -0.333333
v -0.666667 1.000000 -0.000000
v -0.333333 1.000000 0.000000
v -0.000000 1.000000 0.000000
v 0.333333 1.000000 0.000000
v 0.666667 1.000000 0.000000
v -0.666667 1.000000 0.333333
v -0.333334 1.000000 0.333333
v -0.000000 1.000000 0.333333
v 0.333333 1.000000 0.333334
v 0.666666 1.000000 0.333334
v -0.666667 1.000000 0.666667
v -0.333334 1.000000 0.666667
v -0.000000 1.000000 0.666667
v 0.333333 1.000000 0.666667
v 0.666666 1.000000 0.666667
v 0.666667 -1.000000 -0.666667
v 0.333333 -1.000000 -0.666667
v 0.000000 -1.000000 -0.666667
v -0.333333 -1.000000 -0.666667
v -0.666667 -1.000000 -0.666667
v 0.666667 -1.000000 -0.333333
v 0.333333 -1.000000 -0.333333
v 0.000000 -1.000000 -0.333333
v -0.333333 -1.000000 -0.333334
v -0.666667 -1.000000 -0.333334
v 0.666667 -1.000000 -0.000000
v 0.333333 -1.000000 -0.000000
v 0.000000 -1.000000 -0.000000
v -0.333333 -1.000000 -0.000000
v -0.666667 -1.000000 -0.000000
v 0.666667 -1.000000 0.333333
v 0.333333 -1.000000 0.333333
v 0.000000 -1.000000 0.333333
v -0.333333 -1.000000 0.333333
v -0.666667 -1.000000 0.333333
v 0.666667 -1.000000 0.666667
v 0.333333 -1.000000 0.666667
v -0.000000 -1.000000 0.666667
v -0.333333 -1.000000 0.666667
v -0.666667 -1.000000 0.666667
v 0.666667 0.666667 -1.000000
v 0.333334 0.666667 -1.000000
v 0.000000 0.666667 -1.000000
v -0.333333 0.666667 -1.000000
v -0.666667 0.666667 -1.000000
v 0.666667 0.333333 -1.000000
v 0.333334 0.333333 -1.000000
v 0.000000 0.333333 -1.000000
v -0.333333 0.333333 -1.000000
v -0.666667 0.333333 -1.000000
v 0.666667 0.000000 -1.000000
v 0.333334 0.000000 -1.000000
v 0.000000 0.000000 -1.000000
v -0.333333 0.000000 -1.000000
v -0.666667 0.000000 -1.000000
v 0.666667 -0.333333 -1.000000
v 0.333334 -0.333333 -1.000000
v 0.000000 -0.333333 -1.000000
v -0.333333 -0.333333 -1.000000
v -0.666666 -0.333333 -1.000000
v 0.666667 -0.666667 -1.000000
v 0.333333 -0.666667 -1.000000
v 0.000000 -0.666667 -1.000000
v -0.333333 -0.666667 -1.000000
v -0.666666 -0.666667 -1.000000
v 0.666667 -0.666667 1.000000
v 0.333333 -0.666667 1.000000
v -0.000000 -0.666667 1.000000
v -0.333333 -0.666667 1.000000
v -0.666667 -0.666667 1.000000
v 0.666666 -0.333333 1.000000
v 0.333333 -0.333333 1.000000
v -0.000000 -0.333333 1.000000
v -0.333333 -0.333333 1.000000
v -0.666667 -0.333333 1.000000
v 0.666666 0.000000 1.000000
v 0.333333 0.000000 1.000000
v -0.000000 0.000000 1.000000
v -0.333334 0.000000 1.000000
v -0.666667 0.000000 1.000000
v 0.666666 0.333333 1.000000
v 0.333333 0.333333 1.000000
v -0.000000 0.333333 1.000000
v -0.333334 0.333333 1.000000
v -0.666667 0.333333 1.000000
v 0.666666 0.666667 1.000000
v 0.333333 0.666667 1.000000
v -0.000000 0.666667 1.000000
v -0.333334 0.666667 1.000000
v -0.666667 0.666667 1.000000
v 1.026428 -1.026428 0.684285
v 1.026428 -1.026428 1.026428
v -0.684285 -1.026428 -1.026428
v -1.026427 -1.026428 -1.026428
v 1.026428 0.684285 -1.026427
v 1.026428 1.026428 -1.026427
v -0.684285 -1.026428 1.026428
v -1.026428 -1.026428 1.026428
v 1.026427 0.684285 1.026428
v 1.026427 1.026428 1.026428
v -1.026428 -1.026428 -0.684286
v -1.026428 0.684285 1.026427
v -1.026428 1.026428 1.026427
v -1.026428 0.684285 -1.026428
v -1.026428 1.026428 -1.026428
v 1.026427 1.026428 0.684286
v -0.684285 1.026428 -1.026428
v -0.684286 1.026428 1.026428
v -1.026428 1.026428 -0.684285
v 1.026428 -1.026428 -1.026428
v 1.026428 -1.026428 -0.684285
v 1.026428 -1.026428 -0.342143
v 1.026428 -1.026428 0.000000
v 1.026428 -1.026428 0.342143
v -1.026428 -1.026428 0.684285
v -1.026428 -1.026428 0.342142
v -1.026428 -1.026428 -0.000000
v -1.026428 -1.026428 -0.342143
v 1.026428 1.026428 -0.684285
v 1.026428 1.026428 -0.342142
v 1.026428 1.026428 0.000001
v 1.026428 1.026428 0.342143
v -1.026428 1.026428 0.684285
v -1.026428 1.026428 0.342142
v -1.026428 1.026428 -0.000000
v -1.026428 1.026428 -0.342143
v -1.026428 -0.684285 0.684285
v -1.026428 -0.684285 0.342142
v -1.026428 -0.684285 -0.000000
v -1.026428 -0.684285 -0.342143
v -1.026428 -0.684285 -0.684286
v 1.026428 -0.684285 -0.684285
v 1.026428 -0.684285 -0.342142
v 1.026428 -0.684285 0.000000
v 1.026428 -0.684285 0.342143
v 1.026428 -0.684285 0.684285
v 0.684285 1.026428 -0.684285
v 0.684285 1.026428 -0.342142
v 0.684285 1.026428 0.000000
v 0.684285 1.026428 0.342143
v 0.684285 1.026428 0.684286
v -0.684285 -1.026428 -0.684286
v -0.684285 -1.026428 -0.342143
v -0.684285 -1.026428 -0.000000
v -0.684285 -1.026428 0.342142
v -0.684285 -1.026428 0.684285
v 1.026428 -0.684285 -1.026428
v 1.026428 -0.342143 -1.026428
v 1.026428 0.000000 -1.026428
v 1.026428 0.342143 -1.026428
v 1.026428 -0.684285 1.026428
v 1.026428 -0.342143 1.026428
v 1.026428 0.000000 1.026428
v 1.026427 0.342143 1.026428
v -1.026428 -0.684285 1.026428
v -1.026428 -0.342143 1.026428
v -1.026428 0.000000 1.026428
v -1.026428 0.342143 1.026428
v -1.026428 -0.684285 -1.026428
v -1.026428 -0.342143 -1.026428
v -1.026428 0.000000 -1.026428
v -1.026428 0.342143 -1.026428
v -1.026428 0.684285 0.684285
v -1.026428 0.342143 0.684285
v -1.026428 -0.000000 0.684285
v -1.026428 -0.342143 0.684285
v -1.026428 0.684285 0.342142
v -1.026428 0.684285 -0.000000
v -1.026428 0.684285 -0.342143
v -1.026428 0.684285 -0.684285
v -1.026428 0.342143 -0.684285
v -1.026428 -0.000000 -0.684285
v -1.026428 -0.342143 -0.684286
v 1.026428 0.684285 -0.684285
v 1.026428 0.342143 -0.684285
v 1.026428 -0.000000 -0.684285
v 1.026428 -0.342143 -0.684285
v 1.026428 0.684285 -0.342142
v 1.026428 0.684285 0.000000
v 1.026428 0.684285 0.342143
v 1.026428 0.684285 0.684286
v 1.026428 0.342143 0.684286
v 1.026428 -0.000000 0.684286
v 1.026428 -0.342143 0.684285
v -0.684285 0.684285 -1.026428
v -0.684285 0.342143 -1.026428
v -0.684285 0.000000 -1.026428
v -0.684285 -0.342143 -1.026428
v -0.684285 -0.684285 -1.026428
v -0.684285 -0.684285 1.026428
v -0.684285 -0.342143 1.026428
v -0.684286 0.000000 1.026428
v -0.684286 0.342143 1.026428
v -0.684286 0.684285 1.026428
v 0.684285 -1.026428 -1.026428
v 0.342143 -1.026428 -1.026428
v 0.000000 -1.026428 -1.026428
v -0.342142 -1.026428 -1.026428
v 0.684285 -1.026428 1.026428
v 0.342143 -1.026428 1.026428
v -0.000000 -1.026428 1.026428
v -0.342143 -1.026428 1.026428
v 0.684286 1.026428 -1.026427
v 0.342143 1.026428 -1.026428
v 0.000000 1.026428 -1.026428
v -0.342142 1.026428 -1.026428
v 0.684285 1.026428 1.026428
v 0.342142 1.026428 1.026428
v -0.000001 1.026428 1.026428
v -0.342143 1.026428 1.026428
v -0.684285 1.026428 -0.684285
v -0.342143 1.026428 -0.684285
v 0.000000 1.026428 -0.684285
v 0.342143 1.026428 -0.684285
v -0.684285 1.026428 -0.342143
v -0.684285 1.026428 -0.000000
v -0.684286 1.026428 0.342143
v -0.684286 1.026428 0.684285
v -0.342143 1.026428 0.684285
v -0.000000 1.026428 0.684285
v 0.342142 1.026428 0.684286
v 0.684285 -1.026428 -0.684285
v 0.342143 -1.026428 -0.684285
v 0.000000 -1.026428 -0.684285
v -0.342143 -1.026428 -0.684285
v 0.684285 -1.026428 -0.342143
v 0.684285 -1.026428 -0.000000
v 0.684285 -1.026428 0.342143
v 0.684285 -1.026428 0.684285
v 0.342143 -1.026428 0.684285
v -0.000000 -1.026428 0.684285
v -0.342143 -1.026428 0.684285
v 0.684286 0.684285 -1.026428
v 0.342143 0.684285 -1.026428
v 0.000000 0.684285 -1.026428
v -0.342142 0.684285 -1.026428
v 0.684286 0.342143 -1.026428
v 0.684285 0.000000 -1.026428
v 0.684285 -0.342143 -1.026428
v 0.684285 -0.684285 -1.026428
v 0.342143 -0.684285 -1.026428
v 0.000000 -0.684285 -1.026428
v -0.342142 -0.684285 -1.026428
v 0.684285 -0.684285 1.026428
v 0.342142 -0.684285 1.026428
v -0.000000 -0.684285 1.026428
v -0.342143 -0.684285 1.026428
v 0.684285 -0.342143 1.026428
v 0.684285 0.000000 1.026428
v 0.684285 0.342143 1.026428
v 0.684285 0.684285 1.026428
v 0.342142 0.684285 1.026428
v -0.000000 0.684285 1.026428
v -0.342143 0.684285 1.026428
vn -0.8321 -0.0000 0.5547
vn 0.8320 0.0000 0.5547
vn -0.8320 0.0000 -0.5547
vn 1.0000 -0.0000 0.0000
vn 0.8321 0.0000 -0.5547
vn -0.8321 -0.5547 0.0000
vn 0.5547 -0.8321 0.0000
vn 0.8320 -0.5547 0.0000
vn -0.8320 0.5547 -0.0000
vn -0.5547 -0.8320 0.0000
vn 0.8320 0.5547 0.0000
vn -0.8320 -0.0000 0.5547
vn -1.0000 -0.0000 -0.0000
vn 0.0000 0.5547 0.8321
vn -0.8321 0.0000 -0.5547
vn 0.5547 0.8320 0.0000
vn 0.8320 0.0000 -0.5547
vn 0.0000 -0.5547 0.8320
vn -0.8320 -0.5547 0.0000
vn -0.5547 0.8320 0.0000
vn 0.0000 -0.8320 -0.5547
vn -0.8321 0.5547 -0.0000
vn 0.0000 -0.8321 -0.5547
vn 0.8321 0.5547 0.0000
vn -0.0000 0.8320 0.5547
vn -0.0000 -0.0000 1.0000
vn 0.0000 0.5547 -0.8320
vn 0.0000 -0.5547 -0.8320
vn 0.0000 0.0000 -1.0000
vn 0.0000 -0.5547 -0.8321
vn 0.0000 0.8320 -0.5547
vn -0.5547 -0.0000 -0.8320
vn 0.0000 -1.0000 0.0000
vn 0.0000 0.8321 -0.5547
vn -0.0000 -0.8320 0.5547
vn -0.5547 0.0000 -0.8321
vn 0.5547 -0.0000 0.8321
vn 0.0000 1.0000 0.0000
vn 0.5547 -0.0000 0.8320
vn 0.5547 -0.8320 0.0000
vn 0.0000 -0.8321 0.5547
vn -0.5547 -0.0000 0.8321
vn -0.5547 -0.0000 0.8320
vn 0.5547 0.0000 -0.8321
vn 0.5547 0.0000 -0.8320
vn 0.8321 -0.5547 0.0000
usemtl Material
s off
f 131//1 126//1 304//1 308//1
f 135//2 140//2 252//2 251//2
f 106//3 101//3 293//3 297//3
f 45//4 44//4 49//4 50//4
f 44//4 43//4 48//4 49//4
f 43//4 42//4 47//4 48//4
f 42//4 41//4 46//4 47//4
f 110//5 115//5 247//5 246//5
f 40//4 39//4 44//4 45//4
f 39//4 38//4 43//4 44//4
f 38//4 37//4 42//4 43//4
f 37//4 36//4 41//4 42//4
f 81//6 76//6 282//6 286//6
f 35//4 34//4 39//4 40//4
f 34//4 33//4 38//4 39//4
f 33//4 32//4 37//4 38//4
f 32//4 31//4 36//4 37//4
f 31//7 26//7 234//7 238//7
f 30//4 29//4 34//4 35//4
f 29//4 28//4 33//4 34//4
f 28//4 27//4 32//4 33//4
f 27//4 26//4 31//4 32//4
f 85//8 90//8 204//8 203//8
f 55//9 60//9 198//9 197//9
f 6//10 1//10 223//10 227//10
f 61//11 56//11 275//11 276//11
f 136//12 131//12 308//12 309//12
f 140//2 145//2 253//2 252//2
f 20//13 19//13 24//13 25//13
f 19//13 18//13 23//13 24//13
f 18//13 17//13 22//13 23//13
f 17//13 16//13 21//13 22//13
f 54//14 55//14 197//14 274//14
f 15//13 14//13 19//13 20//13
f 14//13 13//13 18//13 19//13
f 13//13 12//13 17//13 18//13
f 12//13 11//13 16//13 17//13
f 111//15 106//15 297//15 298//15
f 10//13 9//13 14//13 15//13
f 9//13 8//13 13//13 14//13
f 8//13 7//13 12//13 13//13
f 7//13 6//13 11//13 12//13
f 30//16 35//16 193//16 192//16
f 5//13 4//13 9//13 10//13
f 4//13 3//13 8//13 9//13
f 3//13 2//13 7//13 8//13
f 2//13 1//13 6//13 7//13
f 53//14 54//14 274//14 273//14
f 115//17 120//17 248//17 247//17
f 79//18 80//18 202//18 285//18
f 86//19 81//19 286//19 287//19
f 36//7 31//7 238//7 239//7
f 5//20 10//20 188//20 187//20
f 52//14 53//14 273//14 272//14
f 78//18 79//18 285//18 284//18
f 90//8 95//8 205//8 204//8
f 104//21 105//21 245//21 296//21
f 60//22 65//22 199//22 198//22
f 11//10 6//10 227//10 228//10
f 51//14 52//14 272//14 271//14
f 77//18 78//18 284//18 283//18
f 103//23 104//23 296//23 295//23
f 66//24 61//24 276//24 277//24
f 129//25 130//25 250//25 307//25
f 141//1 136//1 309//1 310//1
f 76//18 77//18 283//18 282//18
f 102//21 103//21 295//21 294//21
f 128//25 129//25 307//25 306//25
f 145//2 150//2 254//2 253//2
f 116//3 111//3 298//3 299//3
f 101//21 102//21 294//21 293//21
f 35//16 40//16 194//16 193//16
f 127//25 128//25 306//25 305//25
f 141//26 146//26 147//26 142//26
f 142//26 147//26 148//26 143//26
f 143//26 148//26 149//26 144//26
f 144//26 149//26 150//26 145//26
f 120//17 125//17 249//17 248//17
f 136//26 141//26 142//26 137//26
f 137//26 142//26 143//26 138//26
f 138//26 143//26 144//26 139//26
f 139//26 144//26 145//26 140//26
f 75//27 74//27 281//27 201//27
f 131//26 136//26 137//26 132//26
f 132//26 137//26 138//26 133//26
f 133//26 138//26 139//26 134//26
f 134//26 139//26 140//26 135//26
f 91//19 86//19 287//19 288//19
f 126//26 131//26 132//26 127//26
f 127//26 132//26 133//26 128//26
f 128//26 133//26 134//26 129//26
f 129//26 134//26 135//26 130//26
f 41//7 36//7 239//7 240//7
f 10//20 15//20 189//20 188//20
f 126//25 127//25 305//25 304//25
f 74//27 73//27 280//27 281//27
f 95//8 100//8 206//8 205//8
f 100//28 99//28 292//28 206//28
f 116//29 121//29 122//29 117//29
f 117//29 122//29 123//29 118//29
f 118//29 123//29 124//29 119//29
f 119//29 124//29 125//29 120//29
f 65//9 70//9 200//9 199//9
f 111//29 116//29 117//29 112//29
f 112//29 117//29 118//29 113//29
f 113//29 118//29 119//29 114//29
f 114//29 119//29 120//29 115//29
f 16//10 11//10 228//10 229//10
f 106//29 111//29 112//29 107//29
f 107//29 112//29 113//29 108//29
f 108//29 113//29 114//29 109//29
f 109//29 114//29 115//29 110//29
f 73//27 72//27 279//27 280//27
f 101//29 106//29 107//29 102//29
f 102//29 107//29 108//29 103//29
f 103//29 108//29 109//29 104//29
f 104//29 109//29 110//29 105//29
f 99//30 98//30 291//30 292//30
f 71//24 66//24 277//24 278//24
f 125//31 124//31 303//31 249//31
f 146//1 141//1 310//1 311//1
f 4//32 5//32 187//32 226//32
f 72//27 71//27 278//27 279//27
f 91//33 96//33 97//33 92//33
f 92//33 97//33 98//33 93//33
f 93//33 98//33 99//33 94//33
f 94//33 99//33 100//33 95//33
f 98//28 97//28 290//28 291//28
f 86//33 91//33 92//33 87//33
f 87//33 92//33 93//33 88//33
f 88//33 93//33 94//33 89//33
f 89//33 94//33 95//33 90//33
f 124//34 123//34 302//34 303//34
f 81//33 86//33 87//33 82//33
f 82//33 87//33 88//33 83//33
f 83//33 88//33 89//33 84//33
f 84//33 89//33 90//33 85//33
f 150//35 149//35 314//35 254//35
f 76//33 81//33 82//33 77//33
f 77//33 82//33 83//33 78//33
f 78//33 83//33 84//33 79//33
f 79//33 84//33 85//33 80//33
f 3//36 4//36 226//36 225//36
f 121//3 116//3 299//3 300//3
f 29//37 30//37 192//37 237//37
f 40//16 45//16 195//16 194//16
f 97//30 96//30 289//30 290//30
f 123//31 122//31 301//31 302//31
f 70//38 69//38 74//38 75//38
f 69//38 68//38 73//38 74//38
f 68//38 67//38 72//38 73//38
f 67//38 66//38 71//38 72//38
f 149//35 148//35 313//35 314//35
f 65//38 64//38 69//38 70//38
f 64//38 63//38 68//38 69//38
f 63//38 62//38 67//38 68//38
f 62//38 61//38 66//38 67//38
f 2//36 3//36 225//36 224//36
f 60//38 59//38 64//38 65//38
f 59//38 58//38 63//38 64//38
f 58//38 57//38 62//38 63//38
f 57//38 56//38 61//38 62//38
f 28//39 29//39 237//39 236//39
f 55//38 54//38 59//38 60//38
f 54//38 53//38 58//38 59//38
f 53//38 52//38 57//38 58//38
f 52//38 51//38 56//38 57//38
f 96//19 91//19 288//19 289//19
f 46//40 41//40 240//40 241//40
f 15//20 20//20 190//20 189//20
f 122//31 121//31 300//31 301//31
f 148//41 147//41 312//41 313//41
f 1//36 2//36 224//36 223//36
f 27//39 28//39 236//39 235//39
f 70//9 75//9 201//9 200//9
f 21//10 16//10 229//10 230//10
f 147//41 146//41 311//41 312//41
f 26//37 27//37 235//37 234//37
f 25//42 24//42 233//42 191//42
f 45//16 50//16 196//16 195//16
f 130//2 135//2 251//2 250//2
f 24//43 23//43 232//43 233//43
f 50//44 49//44 244//44 196//44
f 20//20 25//20 191//20 190//20
f 23//43 22//43 231//43 232//43
f 105//17 110//17 246//17 245//17
f 49//45 48//45 243//45 244//45
f 22//42 21//42 230//42 231//42
f 48//45 47//45 242//45 243//45
f 80//46 85//46 203//46 202//46
f 47//44 46//44 241//44 242//44
f 56//24 51//24 271//24 275//24
f 206//33 157//33 158//33 175//33
f 278//38 183//38 163//38 168//38
f 241//4 166//4 160//4 159//4
f 254//26 168//26 163//26 162//26
f 230//13 169//13 165//13 164//13
f 249//29 153//29 154//29 219//29
f 162//13 163//13 183//13 223//13
f 223//13 183//13 184//13 227//13
f 227//13 184//13 185//13 228//13
f 228//13 185//13 186//13 229//13
f 229//13 186//13 169//13 230//13
f 155//4 156//4 179//4 234//4
f 234//4 179//4 180//4 238//4
f 238//4 180//4 181//4 239//4
f 239//4 181//4 182//4 240//4
f 240//4 182//4 166//4 241//4
f 167//38 165//38 169//38 271//38
f 271//38 169//38 186//38 275//38
f 275//38 186//38 185//38 276//38
f 276//38 185//38 184//38 277//38
f 277//38 184//38 183//38 278//38
f 153//33 202//33 161//33 154//33
f 202//33 203//33 178//33 161//33
f 203//33 204//33 177//33 178//33
f 204//33 205//33 176//33 177//33
f 205//33 206//33 175//33 176//33
f 174//4 195//4 196//4 151//4
f 173//4 194//4 195//4 174//4
f 172//4 193//4 194//4 173//4
f 171//4 192//4 193//4 172//4
f 170//4 207//4 192//4 171//4
f 207//4 208//4 237//4 192//4
f 208//4 209//4 236//4 237//4
f 209//4 210//4 235//4 236//4
f 210//4 155//4 234//4 235//4
f 178//13 190//13 191//13 161//13
f 177//13 189//13 190//13 178//13
f 176//13 188//13 189//13 177//13
f 175//13 187//13 188//13 176//13
f 158//13 215//13 187//13 175//13
f 215//13 216//13 226//13 187//13
f 216//13 217//13 225//13 226//13
f 217//13 218//13 224//13 225//13
f 218//13 162//13 223//13 224//13
f 167//29 245//29 164//29 165//29
f 245//29 246//29 222//29 164//29
f 246//29 247//29 221//29 222//29
f 247//29 248//29 220//29 221//29
f 248//29 249//29 219//29 220//29
f 161//13 191//13 219//13 154//13
f 191//13 233//13 220//13 219//13
f 233//13 232//13 221//13 220//13
f 232//13 231//13 222//13 221//13
f 231//13 230//13 164//13 222//13
f 157//26 250//26 215//26 158//26
f 250//26 251//26 216//26 215//26
f 251//26 252//26 217//26 216//26
f 252//26 253//26 218//26 217//26
f 253//26 254//26 162//26 218//26
f 151//4 196//4 211//4 152//4
f 196//4 244//4 212//4 211//4
f 244//4 243//4 213//4 212//4
f 243//4 242//4 214//4 213//4
f 242//4 241//4 159//4 214//4
f 214//26 159//26 311//26 310//26
f 213//26 214//26 310//26 309//26
f 212//26 213//26 309//26 308//26
f 211//26 212//26 308//26 304//26
f 152//26 211//26 304//26 259//26
f 259//26 304//26 305//26 260//26
f 260//26 305//26 306//26 261//26
f 261//26 306//26 307//26 262//26
f 262//26 307//26 250//26 157//26
f 208//29 207//29 300//29 299//29
f 209//29 208//29 299//29 298//29
f 210//29 209//29 298//29 297//29
f 155//29 210//29 297//29 293//29
f 156//29 155//29 293//29 263//29
f 263//29 293//29 294//29 264//29
f 264//29 294//29 295//29 265//29
f 265//29 295//29 296//29 266//29
f 266//29 296//29 245//29 167//29
f 174//33 151//33 289//33 288//33
f 173//33 174//33 288//33 287//33
f 172//33 173//33 287//33 286//33
f 171//33 172//33 286//33 282//33
f 170//33 171//33 282//33 255//33
f 255//33 282//33 283//33 256//33
f 256//33 283//33 284//33 257//33
f 257//33 284//33 285//33 258//33
f 258//33 285//33 202//33 153//33
f 182//38 200//38 201//38 166//38
f 181//38 199//38 200//38 182//38
f 180//38 198//38 199//38 181//38
f 179//38 197//38 198//38 180//38
f 156//38 263//38 197//38 179//38
f 263//38 264//38 274//38 197//38
f 264//38 265//38 273//38 274//38
f 265//38 266//38 272//38 273//38
f 266//38 167//38 271//38 272//38
f 207//29 170//29 255//29 300//29
f 300//29 255//29 256//29 301//29
f 301//29 256//29 257//29 302//29
f 302//29 257//29 258//29 303//29
f 303//29 258//29 153//29 249//29
f 159//26 160//26 267//26 311//26
f 311//26 267//26 268//26 312//26
f 312//26 268//26 269//26 313//26
f 313//26 269//26 270//26 314//26
f 314//26 270//26 168//26 254//26
f 166//38 201//38 267//38 160//38
f 201//38 281//38 268//38 267//38
f 281//38 280//38 269//38 268//38
f 280//38 279//38 270//38 269//38
f 279//38 278//38 168//38 270//38
f 151//33 152//33 259//33 289//33
f 289//33 259//33 260//33 290//33
f 290//33 260//33 261//33 291//33
f 291//33 261//33 262//33 292//33
f 292//33 262//33 157//33 206//33
