# Blender v2.78 (sub 0) OBJ File: 'hexagonShape.blend'
# www.blender.org
mtllib hexagonShape.mtl
o Cylinder
v -0.000000 -0.046755 -0.903830
v 0.000000 1.622424 -0.715943
v 0.782740 -0.046755 -0.451915
v 0.620025 1.622424 -0.357972
v 0.782740 -0.046755 0.451915
v 0.620025 1.622424 0.357972
v -0.000000 -0.046755 0.903830
v -0.000000 1.622424 0.715943
v -0.782740 -0.046755 0.451915
v -0.620025 1.622424 0.357972
v -0.782740 -0.046755 -0.451915
v -0.620025 1.622424 -0.357972
v 0.000000 1.571176 -1.000000
v 0.866025 1.571176 -0.500000
v 0.866025 1.571176 0.500000
v -0.000000 1.571176 1.000000
v -0.866025 1.571176 0.500000
v -0.866025 1.571176 -0.500000
vn 0.1020 0.9790 -0.1766
vn 0.2039 0.9790 0.0000
vn 0.1020 0.9790 0.1766
vn -0.1020 0.9790 0.1766
vn 0.0000 1.0000 0.0000
vn -0.2039 0.9790 0.0000
vn -0.1020 0.9790 -0.1766
vn 0.0000 -1.0000 0.0000
vn -0.4993 -0.0514 -0.8649
vn -0.9987 -0.0514 0.0000
vn -0.4993 -0.0514 0.8649
vn 0.4993 -0.0514 0.8649
vn 0.9987 -0.0514 0.0000
vn 0.4993 -0.0514 -0.8649
usemtl None
s off
f 13//1 2//1 4//1 14//1
f 14//2 4//2 6//2 15//2
f 15//3 6//3 8//3 16//3
f 16//4 8//4 10//4 17//4
f 4//5 2//5 12//5 10//5 8//5 6//5
f 17//6 10//6 12//6 18//6
f 18//7 12//7 2//7 13//7
f 1//8 3//8 5//8 7//8 9//8 11//8
f 11//9 18//9 13//9 1//9
f 9//10 17//10 18//10 11//10
f 7//11 16//11 17//11 9//11
f 5//12 15//12 16//12 7//12
f 3//13 14//13 15//13 5//13
f 1//14 13//14 14//14 3//14
