# Blender v2.78 (sub 0) OBJ File: 'monitor.blend'
# www.blender.org
mtllib monitor.mtl
o Cube
v 0.086770 0.156777 -1.000000
v 0.086770 0.156777 1.000000
v 0.000334 0.156777 1.000000
v 0.000334 0.156777 -1.000000
v 0.086770 1.553188 -0.999999
v 0.086770 1.553188 1.000001
v 0.000334 1.553188 1.000000
v 0.000334 1.553188 -1.000000
v 0.086770 0.156777 -0.714286
v 0.086770 0.156777 -0.428571
v 0.086770 0.156777 -0.142857
v 0.086770 0.156777 0.142857
v 0.086770 0.156777 0.428571
v 0.086770 0.156777 0.714286
v 0.000334 0.156777 0.714285
v 0.000334 0.156777 0.428571
v 0.000334 0.156777 0.142857
v 0.000334 0.156777 -0.142857
v 0.000334 0.156777 -0.428572
v 0.000334 0.156777 -0.714286
v 0.086770 1.553188 -0.714285
v 0.086770 1.553188 -0.428571
v 0.086770 1.553188 -0.142857
v 0.086770 1.553188 0.142858
v 0.086770 1.553188 0.428572
v 0.086770 1.553188 0.714286
v 0.000334 1.553188 0.714285
v 0.000334 1.553188 0.428571
v 0.000334 1.553188 0.142857
v 0.000334 1.553188 -0.142857
v 0.000334 1.553188 -0.428572
v 0.000334 1.553188 -0.714286
v 0.086770 0.389512 -1.000000
v 0.086770 0.622247 -1.000000
v 0.086770 0.854982 -1.000000
v 0.086770 1.087717 -1.000000
v 0.086770 1.320453 -1.000000
v 0.086770 0.389512 1.000000
v 0.086770 0.622247 1.000000
v 0.086770 0.854982 1.000000
v 0.086770 1.087717 1.000000
v 0.086770 1.320453 1.000000
v 0.000334 0.389512 1.000000
v 0.000334 0.622247 1.000000
v 0.000334 0.854982 1.000000
v 0.000334 1.087717 1.000000
v 0.000334 1.320453 1.000000
v 0.000334 0.389512 -1.000000
v 0.000334 0.622247 -1.000000
v 0.000334 0.854982 -1.000000
v 0.000334 1.087717 -1.000000
v 0.000334 1.320453 -1.000000
v 0.000334 1.320452 0.714285
v 0.000334 1.087717 0.714285
v 0.000334 0.854982 0.714285
v 0.000334 0.622247 0.714285
v 0.000334 0.389512 0.714285
v 0.000334 1.320452 0.428571
v 0.000334 1.087717 0.428571
v 0.000334 0.854982 0.428571
v 0.000334 0.622247 0.428571
v 0.000334 0.389512 0.428571
v 0.000334 1.320452 0.142857
v 0.000334 1.087717 0.142857
v 0.000334 0.854982 0.142857
v 0.000334 0.622247 0.142857
v 0.000334 0.389512 0.142857
v 0.000334 1.320452 -0.142857
v 0.000334 1.087717 -0.142857
v 0.000334 0.854982 -0.142857
v 0.000334 0.622247 -0.142857
v 0.000334 0.389512 -0.142857
v 0.000334 1.320452 -0.428572
v 0.000334 1.087717 -0.428572
v 0.000334 0.854982 -0.428572
v 0.000334 0.622247 -0.428572
v 0.000334 0.389512 -0.428572
v 0.000334 1.320452 -0.714286
v 0.000334 1.087717 -0.714286
v 0.000334 0.854982 -0.714286
v 0.000334 0.622247 -0.714286
v 0.000334 0.389512 -0.714286
v 0.105362 1.320452 -0.714285
v 0.107269 1.087717 -0.714285
v 0.107269 0.854982 -0.714285
v 0.107269 0.622247 -0.714285
v 0.105362 0.389512 -0.714285
v 0.105362 1.320452 -0.428571
v 0.115944 1.087717 -0.428571
v 0.115944 0.854982 -0.428571
v 0.115944 0.622247 -0.428571
v 0.105362 0.389512 -0.428571
v 0.105362 1.320452 -0.142857
v 0.115944 1.087717 -0.142857
v 0.117697 0.854982 -0.142857
v 0.115944 0.622247 -0.142857
v 0.105362 0.389512 -0.142857
v 0.105362 1.320452 0.142858
v 0.115944 1.087717 0.142858
v 0.117697 0.854982 0.142857
v 0.115944 0.622247 0.142857
v 0.105362 0.389512 0.142857
v 0.105362 1.320452 0.428572
v 0.115944 1.087717 0.428572
v 0.115944 0.854982 0.428572
v 0.115944 0.622247 0.428572
v 0.105362 0.389512 0.428572
v 0.105362 1.320452 0.714286
v 0.107269 1.087717 0.714286
v 0.107269 0.854982 0.714286
v 0.107269 0.622247 0.714286
v 0.105362 0.389512 0.714286
v 0.089045 0.120024 0.751885
v 0.089045 0.120024 1.052639
v 0.089045 0.120024 -1.052639
v -0.001941 0.120024 -1.052640
v 0.089045 1.344955 -1.052639
v 0.089045 1.589941 -1.052639
v -0.001941 0.120024 1.052639
v 0.089044 1.344955 1.052640
v 0.089044 1.589941 1.052640
v -0.001941 0.120024 -0.751886
v -0.001941 1.344955 1.052639
v -0.001941 1.589941 1.052639
v -0.001941 1.344955 -1.052639
v -0.001941 1.589941 -1.052639
v 0.089045 1.589941 0.751886
v -0.001941 1.589941 -0.751885
v 0.089045 0.120024 -0.751885
v 0.089045 0.120024 -0.451131
v 0.089045 0.120024 -0.150377
v 0.089045 0.120024 0.150377
v 0.089045 0.120024 0.451131
v -0.001941 0.120024 0.751885
v -0.001941 0.120024 0.451131
v -0.001941 0.120024 0.150377
v -0.001941 0.120024 -0.150377
v -0.001941 0.120024 -0.451131
v 0.089045 1.589941 -0.751885
v 0.089045 1.589941 -0.451131
v 0.089045 1.589941 -0.150376
v 0.089045 1.589941 0.150378
v 0.089045 1.589941 0.451132
v -0.001941 1.589941 0.751885
v -0.001941 1.589941 0.451131
v -0.001941 1.589941 0.150377
v -0.001941 1.589941 -0.150377
v -0.001941 1.589941 -0.451131
v 0.089045 0.365010 -1.052639
v 0.089045 0.609996 -1.052639
v 0.089045 0.854982 -1.052639
v 0.089045 1.099968 -1.052639
v 0.089045 0.365010 1.052639
v 0.089045 0.609996 1.052640
v 0.089045 0.854982 1.052640
v 0.089045 1.099968 1.052640
v -0.001941 0.365010 1.052639
v -0.001941 0.609996 1.052639
v -0.001941 0.854982 1.052639
v -0.001941 1.099968 1.052639
v -0.001941 0.365010 -1.052640
v -0.001941 0.609996 -1.052640
v -0.001941 0.854982 -1.052640
v -0.001941 1.099968 -1.052639
v 0.101358 0.156777 0.714286
v 0.101358 0.156777 1.000000
v 0.101358 1.087717 1.000000
v 0.103633 1.099968 1.052640
v 0.101358 1.320453 -1.000000
v 0.101358 1.553188 -0.999999
v 0.101358 0.156777 0.142857
v 0.103633 0.120024 0.150377
v 0.101358 1.320453 1.000000
v 0.101358 1.553188 1.000001
v 0.101358 1.553188 0.714286
v 0.101358 0.854982 1.000000
v 0.103633 0.854982 1.052640
v 0.101358 0.156777 -0.142857
v 0.103633 0.120024 -0.150377
v 0.101358 0.156777 -1.000000
v 0.101358 0.156777 -0.714286
v 0.101358 0.156777 -0.428571
v 0.101358 0.156777 0.428571
v 0.101358 1.553188 -0.714285
v 0.101358 1.553188 -0.428571
v 0.101358 1.553188 -0.142857
v 0.101358 1.553188 0.142858
v 0.101358 1.553188 0.428572
v 0.101358 0.622247 1.000000
v 0.103633 0.609996 1.052640
v 0.103633 0.120024 -0.451131
v 0.103633 0.120024 1.052639
v 0.101358 0.389512 1.000000
v 0.103633 0.365010 1.052639
v 0.103633 0.120024 -0.751885
v 0.103633 1.344955 -1.052639
v 0.103633 1.099968 -1.052639
v 0.101358 1.087717 -1.000000
v 0.103633 0.854982 -1.052639
v 0.101358 0.854982 -1.000000
v 0.103633 0.609996 -1.052639
v 0.101358 0.622247 -1.000000
v 0.103633 1.589941 1.052640
v 0.103633 1.589941 0.751886
v 0.101358 0.389512 -1.000000
v 0.103633 0.365010 -1.052639
v 0.103633 0.120024 -1.052639
v 0.103633 0.120024 0.751885
v 0.103633 1.589941 -1.052639
v 0.103633 1.344955 1.052640
v 0.103633 0.120024 0.451131
v 0.103633 1.589941 -0.751885
v 0.103633 1.589941 -0.451131
v 0.103633 1.589941 -0.150376
v 0.103633 1.589941 0.150378
v 0.103633 1.589941 0.451132
v -0.060532 0.156777 0.142857
v -0.060532 0.156777 -0.142857
v -0.060532 0.389512 0.142857
v -0.060532 0.389512 -0.142857
v -0.060532 0.854982 0.142857
v -0.060532 0.622247 0.142857
v -0.060532 0.854982 -0.142857
v -0.060532 0.622247 -0.142857
v 0.000334 -0.177914 0.142857
v 0.000334 -0.177914 -0.142857
v -0.060532 -0.177914 0.142857
v -0.060532 -0.177914 -0.142857
v 0.000334 -0.231531 0.142857
v 0.000334 -0.231531 -0.142857
v -0.060532 -0.231531 0.142857
v -0.060532 -0.231531 -0.142857
v 0.000334 -0.177914 0.592520
v -0.060532 -0.177914 0.592520
v -0.060532 -0.177914 -0.592521
v 0.000334 -0.177914 -0.592521
v 0.000334 -0.231531 0.592520
v -0.060532 -0.231531 0.592520
v -0.060532 -0.231531 -0.592521
v 0.000334 -0.231531 -0.592521
v 0.152367 -0.177914 0.142857
v 0.152367 -0.177914 -0.142857
v -0.138680 -0.177914 0.142857
v -0.138680 -0.177914 -0.142857
v 0.152367 -0.231531 0.142857
v 0.152367 -0.231531 -0.142857
v -0.138680 -0.231531 0.142857
v -0.138680 -0.231531 -0.142857
v -0.138680 -0.177914 0.592520
v -0.138680 -0.231531 0.592520
v 0.152367 -0.231531 0.592520
v 0.152367 -0.177914 0.592520
v 0.152367 -0.231531 -0.592521
v 0.152367 -0.177914 -0.592521
v -0.138680 -0.231531 -0.592521
v -0.138680 -0.177914 -0.592521
vn -0.9981 0.0618 -0.0000
vn -0.9991 -0.0000 -0.0432
vn 0.9987 0.0399 0.0325
vn 0.0000 0.0000 -1.0000
vn -1.0000 -0.0000 -0.0000
vn 0.0000 1.0000 0.0000
vn 0.9987 0.0399 -0.0325
vn 0.9968 0.0796 0.0000
vn 0.0000 -0.0000 1.0000
vn -0.9981 -0.0618 -0.0000
vn 0.9968 -0.0796 0.0000
vn 0.9995 -0.0268 0.0152
vn 0.9995 -0.0000 0.0303
vn 0.9995 0.0268 0.0152
vn 0.9990 -0.0454 0.0000
vn 1.0000 -0.0038 0.0031
vn 1.0000 0.0038 0.0031
vn 0.9990 0.0454 0.0000
vn 1.0000 -0.0075 0.0000
vn 1.0000 0.0075 0.0000
vn 1.0000 -0.0038 -0.0031
vn 1.0000 0.0038 -0.0031
vn 0.9995 -0.0268 -0.0152
vn 0.9995 -0.0000 -0.0303
vn 0.9995 0.0268 -0.0152
vn 0.9987 -0.0399 -0.0325
vn 0.9977 -0.0041 -0.0683
vn 0.9974 -0.0000 -0.0716
vn 0.9977 0.0041 -0.0683
vn 1.0000 0.0000 0.0000
vn 0.0000 -1.0000 0.0000
vn -0.9991 -0.0000 0.0432
vn 0.9987 -0.0399 0.0325
vn 0.9977 -0.0041 0.0683
vn 0.9974 -0.0000 0.0716
vn 0.9977 0.0041 0.0683
vn 0.9981 0.0618 0.0000
vn 0.9991 0.0000 -0.0432
vn 0.9991 -0.0000 0.0432
vn 0.9981 -0.0618 0.0000
usemtl Material
s off
f 3//1 15//1 134//1 119//1
f 43//2 3//2 119//2 157//2
f 108//3 26//3 6//3 42//3
f 38//4 39//4 189//4 193//4
f 78//5 32//5 8//5 52//5
f 143//6 127//6 204//6 216//6
f 47//5 7//5 27//5 53//5
f 53//5 27//5 28//5 58//5
f 58//5 28//5 29//5 63//5
f 63//5 29//5 30//5 68//5
f 68//5 30//5 31//5 73//5
f 73//5 31//5 32//5 78//5
f 37//7 5//7 21//7 83//7
f 83//8 21//8 22//8 88//8
f 88//8 22//8 23//8 93//8
f 93//8 23//8 24//8 98//8
f 98//8 24//8 25//8 103//8
f 103//8 25//8 26//8 108//8
f 155//9 154//9 190//9 177//9
f 9//6 10//6 182//6 181//6
f 2//4 38//4 193//4 166//4
f 117//4 118//4 209//4 196//4
f 142//6 143//6 216//6 215//6
f 154//9 153//9 194//9 190//9
f 1//6 9//6 181//6 180//6
f 37//9 36//9 198//9 169//9
f 141//6 142//6 215//6 214//6
f 153//9 114//9 192//9 194//9
f 8//10 32//10 128//10 126//10
f 36//9 35//9 200//9 198//9
f 13//11 107//11 112//11 14//11
f 107//12 106//12 111//12 112//12
f 106//13 105//13 110//13 111//13
f 105//13 104//13 109//13 110//13
f 104//14 103//14 108//14 109//14
f 12//11 102//11 107//11 13//11
f 102//15 101//15 106//15 107//15
f 101//16 100//16 105//16 106//16
f 100//17 99//17 104//17 105//17
f 99//18 98//18 103//18 104//18
f 11//11 97//11 102//11 12//11
f 97//15 96//15 101//15 102//15
f 96//19 95//19 100//19 101//19
f 95//20 94//20 99//20 100//20
f 94//18 93//18 98//18 99//18
f 10//11 92//11 97//11 11//11
f 92//15 91//15 96//15 97//15
f 91//21 90//21 95//21 96//21
f 90//22 89//22 94//22 95//22
f 89//18 88//18 93//18 94//18
f 9//11 87//11 92//11 10//11
f 87//23 86//23 91//23 92//23
f 86//24 85//24 90//24 91//24
f 85//24 84//24 89//24 90//24
f 84//25 83//25 88//25 89//25
f 1//26 33//26 87//26 9//26
f 33//27 34//27 86//27 87//27
f 34//28 35//28 85//28 86//28
f 35//28 36//28 84//28 85//28
f 36//29 37//29 83//29 84//29
f 19//5 77//5 82//5 20//5
f 77//5 76//5 81//5 82//5
f 76//5 75//5 80//5 81//5
f 75//5 74//5 79//5 80//5
f 74//5 73//5 78//5 79//5
f 18//5 72//5 77//5 19//5
f 72//5 71//5 76//5 77//5
f 71//5 70//5 75//5 76//5
f 70//5 69//5 74//5 75//5
f 69//5 68//5 73//5 74//5
f 65//6 70//6 223//6 221//6
f 18//30 17//30 225//30 226//30
f 70//4 71//4 224//4 223//4
f 65//5 64//5 69//5 70//5
f 64//5 63//5 68//5 69//5
f 16//5 62//5 67//5 17//5
f 62//5 61//5 66//5 67//5
f 61//5 60//5 65//5 66//5
f 60//5 59//5 64//5 65//5
f 59//5 58//5 63//5 64//5
f 15//5 57//5 62//5 16//5
f 57//5 56//5 61//5 62//5
f 56//5 55//5 60//5 61//5
f 55//5 54//5 59//5 60//5
f 54//5 53//5 58//5 59//5
f 3//5 43//5 57//5 15//5
f 43//5 44//5 56//5 57//5
f 44//5 45//5 55//5 56//5
f 45//5 46//5 54//5 55//5
f 46//5 47//5 53//5 54//5
f 114//31 113//31 208//31 192//31
f 32//10 31//10 148//10 128//10
f 140//6 141//6 214//6 213//6
f 152//4 117//4 196//4 197//4
f 31//10 30//10 147//10 148//10
f 20//5 82//5 48//5 4//5
f 82//5 81//5 49//5 48//5
f 81//5 80//5 50//5 49//5
f 80//5 79//5 51//5 50//5
f 79//5 78//5 52//5 51//5
f 35//9 34//9 202//9 200//9
f 52//32 8//32 126//32 125//32
f 30//10 29//10 146//10 147//10
f 7//2 47//2 123//2 124//2
f 29//10 28//10 145//10 146//10
f 14//33 112//33 38//33 2//33
f 112//34 111//34 39//34 38//34
f 111//35 110//35 40//35 39//35
f 110//35 109//35 41//35 40//35
f 109//36 108//36 42//36 41//36
f 113//31 114//31 119//31 134//31
f 127//6 144//6 124//6 121//6
f 120//9 121//9 124//9 123//9
f 149//4 115//4 116//4 161//4
f 118//6 126//6 128//6 139//6
f 139//6 128//6 148//6 140//6
f 140//6 148//6 147//6 141//6
f 141//6 147//6 146//6 142//6
f 142//6 146//6 145//6 143//6
f 143//6 145//6 144//6 127//6
f 115//31 129//31 122//31 116//31
f 129//31 130//31 138//31 122//31
f 130//31 131//31 137//31 138//31
f 131//31 132//31 136//31 137//31
f 132//31 133//31 135//31 136//31
f 133//31 113//31 134//31 135//31
f 118//4 117//4 125//4 126//4
f 117//4 152//4 164//4 125//4
f 152//4 151//4 163//4 164//4
f 151//4 150//4 162//4 163//4
f 150//4 149//4 161//4 162//4
f 114//9 153//9 157//9 119//9
f 153//9 154//9 158//9 157//9
f 154//9 155//9 159//9 158//9
f 155//9 156//9 160//9 159//9
f 156//9 120//9 123//9 160//9
f 44//2 43//2 157//2 158//2
f 15//1 16//1 135//1 134//1
f 45//2 44//2 158//2 159//2
f 16//1 17//1 136//1 135//1
f 46//2 45//2 159//2 160//2
f 17//1 18//1 137//1 136//1
f 47//2 46//2 160//2 123//2
f 18//1 19//1 138//1 137//1
f 4//32 48//32 161//32 116//32
f 19//1 20//1 122//1 138//1
f 48//32 49//32 162//32 161//32
f 139//6 140//6 213//6 212//6
f 49//32 50//32 163//32 162//32
f 151//4 152//4 197//4 199//4
f 50//32 51//32 164//32 163//32
f 34//9 33//9 205//9 202//9
f 118//6 139//6 212//6 209//6
f 51//32 52//32 125//32 164//32
f 6//31 26//31 175//31 174//31
f 150//4 151//4 199//4 201//4
f 33//9 1//9 180//9 205//9
f 149//4 150//4 201//4 206//4
f 27//10 7//10 124//10 144//10
f 115//4 149//4 206//4 207//4
f 28//10 27//10 144//10 145//10
f 20//1 4//1 116//1 122//1
f 183//37 165//37 208//37 211//37
f 167//38 173//38 210//38 168//38
f 171//37 183//37 211//37 172//37
f 176//38 167//38 168//38 177//38
f 178//37 171//37 172//37 179//37
f 189//38 176//38 177//38 190//38
f 182//37 178//37 179//37 191//37
f 193//38 189//38 190//38 194//38
f 181//37 182//37 191//37 195//37
f 166//38 193//38 194//38 192//38
f 180//37 181//37 195//37 207//37
f 169//39 198//39 197//39 196//39
f 198//39 200//39 199//39 197//39
f 200//39 202//39 201//39 199//39
f 202//39 205//39 206//39 201//39
f 174//40 175//40 204//40 203//40
f 205//39 180//39 207//39 206//39
f 184//40 170//40 209//40 212//40
f 185//40 184//40 212//40 213//40
f 186//40 185//40 213//40 214//40
f 165//37 166//37 192//37 208//37
f 187//40 186//40 214//40 215//40
f 188//40 187//40 215//40 216//40
f 170//39 169//39 196//39 209//39
f 175//40 188//40 216//40 204//40
f 173//38 174//38 203//38 210//38
f 10//6 11//6 178//6 182//6
f 156//9 155//9 177//9 168//9
f 121//9 120//9 210//9 203//9
f 39//4 40//4 176//4 189//4
f 120//9 156//9 168//9 210//9
f 11//6 12//6 171//6 178//6
f 40//4 41//4 167//4 176//4
f 12//6 13//6 183//6 171//6
f 41//4 42//4 173//4 167//4
f 13//6 14//6 165//6 183//6
f 127//6 121//6 203//6 204//6
f 129//31 115//31 207//31 195//31
f 130//31 129//31 195//31 191//31
f 21//31 5//31 170//31 184//31
f 131//31 130//31 191//31 179//31
f 22//31 21//31 184//31 185//31
f 132//31 131//31 179//31 172//31
f 23//31 22//31 185//31 186//31
f 14//6 2//6 166//6 165//6
f 133//31 132//31 172//31 211//31
f 24//31 23//31 186//31 187//31
f 113//31 133//31 211//31 208//31
f 25//31 24//31 187//31 188//31
f 5//9 37//9 169//9 170//9
f 26//31 25//31 188//31 175//31
f 42//4 6//4 174//4 173//4
f 217//5 219//5 220//5 218//5
f 219//5 222//5 224//5 220//5
f 222//5 221//5 223//5 224//5
f 67//9 66//9 222//9 219//9
f 72//4 18//4 218//4 220//4
f 71//4 72//4 220//4 224//4
f 17//9 67//9 219//9 217//9
f 66//9 65//9 221//9 222//9
f 232//31 231//31 247//31 248//31
f 218//4 18//4 226//4 228//4
f 217//5 218//5 228//5 227//5
f 17//9 217//9 227//9 225//9
f 230//31 229//31 231//31 232//31
f 236//6 226//6 242//6 254//6
f 231//31 229//31 237//31 238//31
f 227//6 228//6 244//6 243//6
f 233//9 234//9 238//9 237//9
f 235//4 236//4 240//4 239//4
f 235//4 239//4 255//4 256//4
f 225//6 227//6 234//6 233//6
f 230//31 232//31 239//31 240//31
f 229//31 230//31 246//31 245//31
f 228//6 226//6 236//6 235//6
f 230//31 240//31 253//31 246//31
f 248//5 244//5 256//5 255//5
f 242//30 241//30 245//30 246//30
f 243//5 244//5 248//5 247//5
f 245//30 241//30 252//30 251//30
f 242//30 246//30 253//30 254//30
f 243//5 247//5 250//5 249//5
f 237//31 229//31 245//31 251//31
f 231//31 238//31 250//31 247//31
f 228//6 235//6 256//6 244//6
f 239//31 232//31 248//31 255//31
f 238//9 234//9 249//9 250//9
f 225//6 233//6 252//6 241//6
f 233//9 237//9 251//9 252//9
f 234//6 227//6 243//6 249//6
f 240//4 236//4 254//4 253//4
f 226//6 225//6 241//6 242//6
