# Blender v2.78 (sub 0) OBJ File: 'tunnelButton.blend'
# www.blender.org
mtllib tunnelButton.mtl
o Circle
v -0.000000 -0.118825 -2.499363
v -0.487602 -0.118825 -2.451339
v -0.956465 -0.118825 -2.309111
v -1.388572 -0.118825 -2.078145
v -1.767317 -0.118825 -1.767317
v -2.078145 -0.118825 -1.388572
v -2.309111 -0.118825 -0.956465
v -2.451339 -0.118825 -0.487602
v -2.499363 -0.118825 -0.000000
v -2.451339 -0.118825 0.487601
v -2.309111 -0.118825 0.956465
v -2.078145 -0.118825 1.388572
v -1.767317 -0.118825 1.767317
v -1.388572 -0.118825 2.078145
v -0.956465 -0.118825 2.309111
v -0.487601 -0.118825 2.451339
v 0.000001 -0.118825 2.499363
v 0.487603 -0.118825 2.451339
v 0.956466 -0.118825 2.309110
v 1.388573 -0.118825 2.078144
v 1.767318 -0.118825 1.767316
v 2.078146 -0.118825 1.388570
v 2.309112 -0.118825 0.956463
v 2.451339 -0.118825 0.487599
v 2.499363 -0.118825 -0.000002
v 2.451339 -0.118825 -0.487604
v 2.309110 -0.118825 -0.956468
v 2.078143 -0.118825 -1.388574
v 1.767315 -0.118825 -1.767319
v 1.388569 -0.118825 -2.078147
v 0.956462 -0.118825 -2.309112
v 0.487598 -0.118825 -2.451340
v -0.000000 -0.118825 -1.955617
v -0.381522 -0.118825 -1.918040
v -0.748382 -0.118825 -1.806754
v -1.086483 -0.118825 -1.626036
v -1.382830 -0.118825 -1.382830
v -1.626036 -0.118825 -1.086483
v -1.806754 -0.118825 -0.748382
v -1.918040 -0.118825 -0.381522
v -1.955617 -0.118825 -0.000000
v -1.918040 -0.118825 0.381521
v -1.806754 -0.118825 0.748382
v -1.626036 -0.118825 1.086482
v -1.382830 -0.118825 1.382830
v -1.086482 -0.118825 1.626036
v -0.748382 -0.118825 1.806754
v -0.381521 -0.118825 1.918040
v 0.000001 -0.118825 1.955616
v 0.381523 -0.118825 1.918040
v 0.748383 -0.118825 1.806754
v 1.086483 -0.118825 1.626035
v 1.382831 -0.118825 1.382829
v 1.626037 -0.118825 1.086481
v 1.806755 -0.118825 0.748380
v 1.918040 -0.118825 0.381520
v 1.955617 -0.118825 -0.000002
v 1.918040 -0.118825 -0.381524
v 1.806753 -0.118825 -0.748384
v 1.626034 -0.118825 -1.086485
v 1.382828 -0.118825 -1.382832
v 1.086480 -0.118825 -1.626037
v 0.748379 -0.118825 -1.806756
v 0.381519 -0.118825 -1.918041
v -0.000000 2.949673 -2.499363
v -0.487602 2.949673 -2.451339
v -0.956465 2.949673 -2.309111
v -1.388572 2.949673 -2.078145
v -1.767317 2.949673 -1.767317
v -2.078145 2.949673 -1.388572
v -2.309111 2.949673 -0.956465
v -2.451339 2.949673 -0.487602
v -2.499363 2.949673 -0.000000
v -2.451339 2.949673 0.487601
v -2.309111 2.949673 0.956465
v -2.078145 2.949673 1.388572
v -1.767317 2.949673 1.767317
v -1.388572 2.949673 2.078145
v -0.956465 2.949673 2.309111
v -0.487601 2.949673 2.451339
v 0.000001 2.949673 2.499363
v 0.487603 2.949673 2.451339
v 0.956466 2.949673 2.309110
v 1.388573 2.949673 2.078144
v 1.767318 2.949673 1.767316
v 2.078146 2.949673 1.388570
v 2.309112 2.949673 0.956463
v 2.451339 2.949673 0.487599
v 2.499363 2.949673 -0.000002
v 2.451339 2.949673 -0.487604
v 2.309110 2.949673 -0.956468
v 2.078143 2.949673 -1.388574
v 1.767315 2.949673 -1.767319
v 1.388569 2.949673 -2.078147
v 0.956462 2.949673 -2.309112
v 0.487598 2.949673 -2.451340
v -0.000000 2.949673 -2.389045
v -0.466079 2.949673 -2.343140
v -0.914248 2.949673 -2.207189
v -1.327282 2.949673 -1.986418
v -1.689310 2.949673 -1.689309
v -1.986418 2.949673 -1.327282
v -2.207189 2.949673 -0.914248
v -2.343140 2.949673 -0.466080
v -2.389045 2.949673 -0.000000
v -2.343140 2.949673 0.466079
v -2.207189 2.949673 0.914247
v -1.986418 2.949673 1.327282
v -1.689310 2.949673 1.689309
v -1.327282 2.949673 1.986418
v -0.914247 2.949673 2.207190
v -0.466079 2.949673 2.343140
v 0.000001 2.949673 2.389044
v 0.466080 2.949673 2.343139
v 0.914249 2.949673 2.207189
v 1.327283 2.949673 1.986417
v 1.689311 2.949673 1.689309
v 1.986419 2.949673 1.327280
v 2.207190 2.949673 0.914246
v 2.343140 2.949673 0.466077
v 2.389045 2.949673 -0.000002
v 2.343139 2.949673 -0.466082
v 2.207188 2.949673 -0.914250
v 1.986416 2.949673 -1.327284
v 1.689307 2.949673 -1.689312
v 1.327279 2.949673 -1.986420
v 0.914244 2.949673 -2.207191
v 0.466076 2.949673 -2.343140
v 0.476345 2.984679 2.394742
v 0.934383 2.984679 2.255797
v -1.726513 2.984679 -1.726513
v -2.030165 2.984679 -1.356513
v 0.476340 2.984679 -2.394743
v -0.000000 2.984679 -2.441658
v 1.356514 2.984679 2.030164
v -2.255798 2.984679 -0.934382
v 1.726514 2.984679 1.726512
v -2.394742 2.984679 -0.476344
v 2.030165 2.984679 1.356511
v -2.441658 2.984679 -0.000000
v 2.255799 2.984679 0.934380
v -2.394742 2.984679 0.476344
v 2.394743 2.984679 0.476342
v -2.255798 2.984679 0.934382
v 2.441658 2.984679 -0.000002
v -2.030165 2.984679 1.356513
v 2.394742 2.984679 -0.476346
v -1.726513 2.984679 1.726513
v 2.255797 2.984679 -0.934385
v -1.356513 2.984679 2.030165
v 2.030163 2.984679 -1.356515
v -0.934382 2.984679 2.255798
v -0.476344 2.984679 -2.394742
v 1.726511 2.984679 -1.726515
v -0.476343 2.984679 2.394742
v -0.934382 2.984679 -2.255798
v 1.356510 2.984679 -2.030166
v 0.000001 2.984679 2.441658
v -1.356513 2.984679 -2.030164
v 0.934379 2.984679 -2.255800
vn 0.0000 -1.0000 0.0000
vn -0.1613 0.8313 -0.5319
vn 0.4296 0.8313 0.3526
vn -0.0545 0.8313 0.5531
vn -0.2620 0.8313 -0.4902
vn 0.4902 0.8313 0.2620
vn -0.3526 0.8313 -0.4296
vn 0.5319 0.8313 0.1613
vn -0.4296 0.8313 -0.3526
vn 0.5531 0.8313 0.0545
vn -0.4902 0.8313 -0.2620
vn 0.5531 0.8313 -0.0545
vn -0.5319 0.8313 -0.1613
vn 0.5319 0.8313 -0.1613
vn -0.5531 0.8313 -0.0545
vn 0.4902 0.8313 -0.2620
vn -0.5531 0.8313 0.0545
vn 0.4296 0.8313 -0.3526
vn -0.5319 0.8313 0.1613
vn 0.3526 0.8313 -0.4296
vn -0.4902 0.8313 0.2620
vn 0.2620 0.8313 -0.4902
vn 0.0545 0.8313 0.5531
vn -0.4296 0.8313 0.3526
vn 0.1613 0.8313 -0.5319
vn 0.1613 0.8313 0.5319
vn -0.3526 0.8313 0.4296
vn 0.0545 0.8313 -0.5531
vn 0.2620 0.8313 0.4902
vn -0.2620 0.8313 0.4902
vn -0.0545 0.8313 -0.5531
vn 0.3526 0.8313 0.4296
vn -0.1613 0.8313 0.5319
vn 0.2875 0.1392 -0.9476
vn 0.7730 0.0000 0.6344
vn 0.0971 0.1392 -0.9855
vn 0.8819 0.0000 0.4714
vn -0.0971 0.1392 -0.9855
vn 0.9569 0.0000 0.2903
vn -0.2875 0.1392 -0.9476
vn 0.9952 0.0000 0.0980
vn -0.4668 0.1392 -0.8733
vn 0.9952 0.0000 -0.0980
vn -0.6282 0.1392 -0.7655
vn 0.9569 0.0000 -0.2903
vn -0.7655 0.1392 -0.6282
vn 0.8819 0.0000 -0.4714
vn -0.0980 0.0000 -0.9952
vn -0.8733 0.1392 -0.4668
vn 0.7730 0.0000 -0.6344
vn -0.2903 0.0000 -0.9569
vn -0.9476 0.1392 -0.2875
vn 0.6344 0.0000 -0.7730
vn -0.4714 0.0000 -0.8819
vn -0.9855 0.1392 -0.0971
vn 0.4714 0.0000 -0.8819
vn -0.6344 0.0000 -0.7730
vn -0.9855 0.1392 0.0971
vn 0.2903 0.0000 -0.9569
vn -0.7730 0.0000 -0.6344
vn -0.9476 0.1392 0.2875
vn 0.0980 0.0000 -0.9952
vn -0.8819 0.0000 -0.4714
vn -0.8733 0.1392 0.4668
vn 0.0971 0.1392 0.9855
vn -0.9569 0.0000 -0.2903
vn -0.7655 0.1392 0.6282
vn 0.2875 0.1392 0.9476
vn -0.9952 0.0000 -0.0980
vn -0.6282 0.1392 0.7655
vn 0.4668 0.1392 0.8733
vn -0.9952 0.0000 0.0980
vn -0.4668 0.1392 0.8733
vn 0.6282 0.1392 0.7655
vn -0.9569 0.0000 0.2903
vn -0.2875 0.1392 0.9476
vn 0.7655 0.1392 0.6282
vn -0.8819 0.0000 0.4714
vn -0.0971 0.1392 0.9855
vn 0.8733 0.1392 0.4668
vn -0.7730 0.0000 0.6344
vn 0.9476 0.1392 0.2875
vn -0.6344 0.0000 0.7730
vn 0.9855 0.1392 0.0971
vn -0.4714 0.0000 0.8819
vn 0.9855 0.1392 -0.0971
vn -0.2903 0.0000 0.9569
vn 0.9476 0.1392 -0.2875
vn -0.0980 0.0000 0.9952
vn 0.8733 0.1392 -0.4668
vn 0.0980 0.0000 0.9952
vn 0.7655 0.1392 -0.6282
vn 0.2903 0.0000 0.9569
vn 0.6282 0.1392 -0.7655
vn 0.4714 0.0000 0.8819
vn 0.4668 0.1392 -0.8733
vn 0.6344 0.0000 0.7730
vn 0.1511 0.8539 -0.4981
vn -0.3302 0.8539 -0.4023
vn 0.0510 0.8539 0.5180
vn 0.2454 0.8539 -0.4590
vn -0.2454 0.8539 -0.4590
vn -0.0510 0.8539 0.5180
vn 0.3302 0.8539 -0.4023
vn -0.1511 0.8539 -0.4981
vn -0.1511 0.8539 0.4981
vn 0.4023 0.8539 -0.3302
vn -0.0510 0.8539 -0.5180
vn -0.2454 0.8539 0.4590
vn 0.4590 0.8539 -0.2454
vn -0.3302 0.8539 0.4023
vn 0.4981 0.8539 -0.1511
vn -0.4023 0.8539 0.3302
vn 0.5180 0.8539 -0.0510
vn -0.4590 0.8539 0.2454
vn 0.5180 0.8539 0.0510
vn -0.4981 0.8539 0.1511
vn 0.4981 0.8539 0.1511
vn -0.5180 0.8539 0.0510
vn 0.4590 0.8539 0.2454
vn -0.5180 0.8539 -0.0510
vn 0.4023 0.8539 0.3302
vn -0.4981 0.8539 -0.1511
vn 0.3302 0.8539 0.4023
vn -0.4590 0.8539 -0.2454
vn 0.2454 0.8539 0.4590
vn 0.0510 0.8539 -0.5180
vn -0.4023 0.8539 -0.3302
vn 0.1511 0.8539 0.4981
vn 0.0000 1.0000 0.0000
usemtl None
s off
f 19//1 18//1 50//1 51//1
f 6//1 5//1 37//1 38//1
f 1//1 32//1 64//1 33//1
f 20//1 19//1 51//1 52//1
f 7//1 6//1 38//1 39//1
f 21//1 20//1 52//1 53//1
f 8//1 7//1 39//1 40//1
f 22//1 21//1 53//1 54//1
f 9//1 8//1 40//1 41//1
f 23//1 22//1 54//1 55//1
f 10//1 9//1 41//1 42//1
f 24//1 23//1 55//1 56//1
f 11//1 10//1 42//1 43//1
f 25//1 24//1 56//1 57//1
f 12//1 11//1 43//1 44//1
f 26//1 25//1 57//1 58//1
f 13//1 12//1 44//1 45//1
f 27//1 26//1 58//1 59//1
f 14//1 13//1 45//1 46//1
f 28//1 27//1 59//1 60//1
f 15//1 14//1 46//1 47//1
f 2//1 1//1 33//1 34//1
f 29//1 28//1 60//1 61//1
f 16//1 15//1 47//1 48//1
f 3//1 2//1 34//1 35//1
f 30//1 29//1 61//1 62//1
f 17//1 16//1 48//1 49//1
f 4//1 3//1 35//1 36//1
f 31//1 30//1 62//1 63//1
f 18//1 17//1 49//1 50//1
f 5//1 4//1 36//1 37//1
f 32//1 31//1 63//1 64//1
f 130//2 115//2 114//2 129//2
f 132//3 102//3 101//3 131//3
f 134//4 97//4 128//4 133//4
f 135//5 116//5 115//5 130//5
f 136//6 103//6 102//6 132//6
f 137//7 117//7 116//7 135//7
f 138//8 104//8 103//8 136//8
f 139//9 118//9 117//9 137//9
f 140//10 105//10 104//10 138//10
f 141//11 119//11 118//11 139//11
f 142//12 106//12 105//12 140//12
f 143//13 120//13 119//13 141//13
f 144//14 107//14 106//14 142//14
f 145//15 121//15 120//15 143//15
f 146//16 108//16 107//16 144//16
f 147//17 122//17 121//17 145//17
f 148//18 109//18 108//18 146//18
f 149//19 123//19 122//19 147//19
f 150//20 110//20 109//20 148//20
f 151//21 124//21 123//21 149//21
f 152//22 111//22 110//22 150//22
f 153//23 98//23 97//23 134//23
f 154//24 125//24 124//24 151//24
f 155//25 112//25 111//25 152//25
f 156//26 99//26 98//26 153//26
f 157//27 126//27 125//27 154//27
f 158//28 113//28 112//28 155//28
f 159//29 100//29 99//29 156//29
f 160//30 127//30 126//30 157//30
f 129//31 114//31 113//31 158//31
f 131//32 101//32 100//32 159//32
f 133//33 128//33 127//33 160//33
f 47//34 111//34 112//34 48//34
f 22//35 86//35 85//35 21//35
f 48//36 112//36 113//36 49//36
f 23//37 87//37 86//37 22//37
f 49//38 113//38 114//38 50//38
f 24//39 88//39 87//39 23//39
f 50//40 114//40 115//40 51//40
f 25//41 89//41 88//41 24//41
f 51//42 115//42 116//42 52//42
f 26//43 90//43 89//43 25//43
f 52//44 116//44 117//44 53//44
f 27//45 91//45 90//45 26//45
f 53//46 117//46 118//46 54//46
f 28//47 92//47 91//47 27//47
f 2//48 66//48 65//48 1//48
f 54//49 118//49 119//49 55//49
f 29//50 93//50 92//50 28//50
f 3//51 67//51 66//51 2//51
f 55//52 119//52 120//52 56//52
f 30//53 94//53 93//53 29//53
f 4//54 68//54 67//54 3//54
f 56//55 120//55 121//55 57//55
f 31//56 95//56 94//56 30//56
f 5//57 69//57 68//57 4//57
f 57//58 121//58 122//58 58//58
f 32//59 96//59 95//59 31//59
f 6//60 70//60 69//60 5//60
f 58//61 122//61 123//61 59//61
f 1//62 65//62 96//62 32//62
f 7//63 71//63 70//63 6//63
f 59//64 123//64 124//64 60//64
f 33//65 97//65 98//65 34//65
f 8//66 72//66 71//66 7//66
f 60//67 124//67 125//67 61//67
f 34//68 98//68 99//68 35//68
f 9//69 73//69 72//69 8//69
f 61//70 125//70 126//70 62//70
f 35//71 99//71 100//71 36//71
f 10//72 74//72 73//72 9//72
f 62//73 126//73 127//73 63//73
f 36//74 100//74 101//74 37//74
f 11//75 75//75 74//75 10//75
f 63//76 127//76 128//76 64//76
f 37//77 101//77 102//77 38//77
f 12//78 76//78 75//78 11//78
f 64//79 128//79 97//79 33//79
f 38//80 102//80 103//80 39//80
f 13//81 77//81 76//81 12//81
f 39//82 103//82 104//82 40//82
f 14//83 78//83 77//83 13//83
f 40//84 104//84 105//84 41//84
f 15//85 79//85 78//85 14//85
f 41//86 105//86 106//86 42//86
f 16//87 80//87 79//87 15//87
f 42//88 106//88 107//88 43//88
f 17//89 81//89 80//89 16//89
f 43//90 107//90 108//90 44//90
f 18//91 82//91 81//91 17//91
f 44//92 108//92 109//92 45//92
f 19//93 83//93 82//93 18//93
f 45//94 109//94 110//94 46//94
f 20//95 84//95 83//95 19//95
f 46//96 110//96 111//96 47//96
f 21//97 85//97 84//97 20//97
f 96//98 133//98 160//98 95//98
f 69//99 131//99 159//99 68//99
f 82//100 129//100 158//100 81//100
f 95//101 160//101 157//101 94//101
f 68//102 159//102 156//102 67//102
f 81//103 158//103 155//103 80//103
f 94//104 157//104 154//104 93//104
f 67//105 156//105 153//105 66//105
f 80//106 155//106 152//106 79//106
f 93//107 154//107 151//107 92//107
f 66//108 153//108 134//108 65//108
f 79//109 152//109 150//109 78//109
f 92//110 151//110 149//110 91//110
f 78//111 150//111 148//111 77//111
f 91//112 149//112 147//112 90//112
f 77//113 148//113 146//113 76//113
f 90//114 147//114 145//114 89//114
f 76//115 146//115 144//115 75//115
f 89//116 145//116 143//116 88//116
f 75//117 144//117 142//117 74//117
f 88//118 143//118 141//118 87//118
f 74//119 142//119 140//119 73//119
f 87//120 141//120 139//120 86//120
f 73//121 140//121 138//121 72//121
f 86//122 139//122 137//122 85//122
f 72//123 138//123 136//123 71//123
f 85//124 137//124 135//124 84//124
f 71//125 136//125 132//125 70//125
f 84//126 135//126 130//126 83//126
f 65//127 134//127 133//127 96//127
f 70//128 132//128 131//128 69//128
f 83//129 130//129 129//129 82//129
f 34//130 35//130 36//130 37//130 38//130 39//130 40//130 41//130 42//130 43//130 44//130 45//130 46//130 47//130 48//130 49//130 50//130 51//130 52//130 53//130 54//130 55//130 56//130 57//130 58//130 59//130 60//130 61//130 62//130 63//130 64//130 33//130
